<svg xmlns="http://www.w3.org/2000/svg" fill="none" class="css-1w9rcby" viewBox="0 0 96 96"><path fill="#E6E8EA" d="M10 10h14v14H10zM72 72h14v14H72z"/><path fill="url(#solutions-light_svg__paint0_linear)" d="M0 0h18v40H0z" transform="matrix(1 0 0 -1 10 68)"/><path fill="url(#solutions-light_svg__paint1_linear)" d="M0 0h28v40H0z" transform="matrix(1 0 0 -1 58 68)"/><path fill="url(#solutions-light_svg__paint2_linear)" d="M0 0h18v40H0z" transform="matrix(0 -1 -1 0 68 86)"/><path fill="url(#solutions-light_svg__paint3_linear)" d="M0 0h18v40H0z" transform="matrix(0 -1 -1 0 68 28)"/><path fill="url(#solutions-light_svg__paint4_linear)" d="M53 18H43v10H28v15H18v10h10v15h15v10h10V68h15V53H58V43h10V28H53V18z"/><path fill="#E6E8EA" d="M74 17l5 5 5-5-5-5-5 5zM16 84.5l3.5 3.5 3.5-3.5-3.5-3.5-3.5 3.5z"/><defs><linearGradient id="solutions-light_svg__paint0_linear" x1="9" x2="9" y1="0" y2="40" gradientUnits="userSpaceOnUse"><stop stop-color="#929AA5"/><stop offset="1" stop-color="#76808F"/></linearGradient><linearGradient id="solutions-light_svg__paint1_linear" x1="14" x2="14" y1="0" y2="40" gradientUnits="userSpaceOnUse"><stop stop-color="#929AA5"/><stop offset="1" stop-color="#76808F"/></linearGradient><linearGradient id="solutions-light_svg__paint2_linear" x1="9" x2="9" y1="0" y2="40" gradientUnits="userSpaceOnUse"><stop stop-color="#929AA5"/><stop offset="1" stop-color="#76808F"/></linearGradient><linearGradient id="solutions-light_svg__paint3_linear" x1="9" x2="9" y1="0" y2="40" gradientUnits="userSpaceOnUse"><stop stop-color="#929AA5"/><stop offset="1" stop-color="#76808F"/></linearGradient><linearGradient id="solutions-light_svg__paint4_linear" x1="43" x2="43" y1="78" y2="18" gradientUnits="userSpaceOnUse"><stop stop-color="#F0B90B"/><stop offset="1" stop-color="#F8D33A"/></linearGradient></defs></svg>